<?xml version="1.0" standalone="no"?>
<!DOCTYPE svg PUBLIC "-//W3C//DTD SVG 20010904//EN"
 "http://www.w3.org/TR/2001/REC-SVG-20010904/DTD/svg10.dtd">
<svg version="1.0" xmlns="http://www.w3.org/2000/svg"
 width="30px" height="30px" viewBox="0 0 640.000000 1280.000000"
 preserveAspectRatio="xMidYMid meet">
<metadata>
Created by potrace 1.15, written by Peter Selinger 2001-2017
</metadata>
<g transform="translate(0.000000,1280.000000) scale(0.100000,-0.100000)"
fill="#fff" stroke="none">
<path d="M3321 12785 c-235 -53 -449 -255 -597 -562 -51 -106 -116 -294 -139
-403 -30 -141 -29 -552 2 -896 l5 -62 -58 -16 c-33 -9 -124 -39 -204 -67 -789
-277 -1359 -858 -1573 -1604 -66 -228 -71 -271 -71 -635 -1 -228 3 -365 12
-430 67 -472 228 -849 510 -1188 277 -334 619 -576 1365 -963 685 -357 918
-495 1184 -706 263 -208 465 -488 540 -748 20 -68 29 -358 14 -455 -41 -268
-271 -473 -636 -565 -422 -107 -897 -78 -1367 84 -248 86 -446 182 -703 341
-260 161 -273 165 -525 165 -212 -1 -242 -7 -399 -83 -82 -40 -110 -61 -192
-142 -130 -128 -214 -257 -245 -375 -19 -71 -18 -314 1 -390 39 -148 153 -322
325 -495 139 -139 202 -182 475 -320 373 -189 594 -269 974 -355 138 -31 273
-59 300 -62 27 -3 54 -9 60 -12 8 -5 5 -36 -10 -107 -27 -125 -37 -408 -20
-551 47 -389 152 -706 296 -893 61 -79 181 -188 256 -233 83 -48 148 -61 292
-55 110 5 122 7 190 41 111 56 223 158 301 274 103 155 181 327 222 490 33
130 36 153 46 397 11 243 4 478 -19 662 l-5 41 47 12 c83 21 336 101 465 148
347 125 688 344 967 621 275 272 380 422 502 717 131 315 181 577 181 955 0
373 -51 678 -166 989 -80 218 -232 485 -381 672 -177 221 -463 477 -688 614
-44 27 -98 63 -120 79 -21 17 -82 52 -134 79 -53 26 -105 56 -116 67 -11 11
-139 80 -285 153 -448 227 -764 400 -930 511 -439 292 -726 601 -804 865 -23
78 -21 235 4 341 27 111 113 287 182 370 117 140 286 236 478 271 100 19 574
19 680 1 198 -35 478 -122 684 -214 140 -62 201 -95 404 -220 211 -130 241
-140 452 -145 201 -6 256 3 375 62 162 79 269 185 358 354 72 137 80 172 81
351 1 175 -8 213 -76 337 -142 261 -453 532 -812 707 -199 98 -501 196 -781
256 -83 17 -154 35 -159 40 -5 5 0 47 10 97 16 76 19 132 18 398 0 273 -3 324
-22 425 -28 150 -60 248 -132 397 -142 297 -322 474 -560 553 -86 28 -241 35
-329 15z"/>
</g>
</svg>
